<?xml version="1.0" encoding="utf-8"?>
<!-- Generator: Adobe Illustrator 25.4.0, SVG Export Plug-In . SVG Version: 6.00 Build 0)  -->
<svg version="1.1" id="Layer_1" xmlns="http://www.w3.org/2000/svg" xmlns:xlink="http://www.w3.org/1999/xlink" x="0px" y="0px"
	 viewBox="0 0 16 16" style="enable-background:new 0 0 16 16;" xml:space="preserve">
<style type="text/css">
	.st0{fill:#2277EE;}
	.st1{fill:none;stroke:#000000;stroke-width:3;stroke-linecap:round;stroke-miterlimit:10;}
	.st2{fill:#FFFFFF;}
</style>
<g id="VwxXSF.tif">
	
		<image style="overflow:visible;enable-background:new    ;" width="537" height="419" id="Layer_0" xlink:href="E4B66F080BADFCAF.png"  transform="matrix(7.397434e-02 0 0 7.397434e-02 -12.7371 43.6907)">
	</image>
</g>
<path class="st0" d="M11.7,6.5h-3c-0.4,0-0.6-0.4-0.5-0.7l1-2.8l0.4-1l0.6-1.7c0.1-0.2,0-0.3-0.2-0.3c-0.1,0-0.1,0-0.2,0.1L8.4,2
	L7.5,3.2L3.7,8.1c-0.4,0.5,0,1.3,0.6,1.3h3c0.4,0,0.6,0.4,0.5,0.7l-0.9,2.7l-1,2.9c0,0.2,0.1,0.3,0.2,0.3c0,0,0.1,0,0.2-0.1l6.2-8
	C12.8,7.3,12.4,6.5,11.7,6.5z"/>
<g>
	<path d="M-77.5,19.9h-7.7c-1.7,0-2.7-2-1.6-3.4L-71-4c0.4-0.5,1.1-0.1,0.9,0.5l-5.1,14.2c-0.3,0.8,0.3,1.7,1.2,1.7h7.7
		c1.7,0,2.7,2,1.7,3.4l-15.8,20.5c-0.4,0.5-1.1,0.1-0.9-0.5l5-14.1C-76,20.8-76.6,19.9-77.5,19.9z"/>
</g>
<g>
	<polygon points="-87.3,9.3 -94.7,9.3 -96.9,9.3 -102.1,9.3 -96.2,-7.3 -114,15.7 -104.4,15.7 -99.1,15.7 -105.1,32.4 	"/>
</g>
<path class="st1" d="M17.6-37.6H-15c-3.6,0-6.5-2.9-6.5-6.5v-14.4c0-3.6,2.9-6.5,6.5-6.5h38.5c3.6,0,6.5,2.9,6.5,6.5l0,0"/>
<path d="M13.7-55.1H6c-0.9,0-1.5-0.9-1.2-1.7l5-14.1c0.1-0.4-0.2-0.7-0.5-0.7c-0.1,0-0.3,0.1-0.4,0.2L-6.9-50.9
	C-8-49.5-7-47.6-5.2-47.6h7.7c0.9,0,1.5,0.9,1.2,1.7l-5,14.1c-0.1,0.4,0.2,0.7,0.5,0.7c0.1,0,0.3-0.1,0.4-0.2l15.8-20.4
	C16.4-53.1,15.4-55.1,13.7-55.1z"/>
<path class="st2" d="M17.4-54.8c-0.7-1.4-2.1-2.3-3.7-2.3H7l4.7-13.1c0.3-0.8,0.2-1.6-0.3-2.3c-0.5-0.7-1.3-1.1-2.1-1.1
	c-0.8,0-1.5,0.4-2,1L-8.5-52.1c-1,1.2-1.1,2.9-0.4,4.3c0.7,1.4,2.1,2.3,3.7,2.3h6.7l-4.7,13.1c-0.3,0.8-0.2,1.6,0.3,2.3
	c0.5,0.7,1.3,1.1,2.1,1.1c0.8,0,1.5-0.4,2-1L17-50.5C17.9-51.7,18.1-53.4,17.4-54.8z M16.2-51.1L0.4-30.6C0.1-30.2-0.3-30-0.8-30
	s-1-0.2-1.3-0.7s-0.4-0.9-0.2-1.4l5-14.1c0-0.1,0-0.2,0-0.3c0,0-0.1-0.1-0.2-0.1h-7.7c-1.2,0-2.2-0.7-2.8-1.7
	c-0.5-1.1-0.4-2.3,0.3-3.2L8.1-72c0.3-0.4,0.7-0.6,1.2-0.6s1,0.2,1.3,0.7s0.3,0.9,0.2,1.4l-5,14.1c0,0.1,0,0.2,0,0.3
	c0,0,0.1,0.1,0.2,0.1h7.7c1.2,0,2.2,0.7,2.8,1.7C17-53.3,16.9-52,16.2-51.1z"/>
<path class="st2" d="M13.7-56.1H6c-0.1,0-0.2-0.1-0.2-0.1s-0.1-0.1,0-0.3l5-14.1c0.2-0.5,0.1-1-0.2-1.4s-0.8-0.7-1.3-0.7
	s-0.9,0.2-1.2,0.6L-7.7-51.5c-0.7,0.9-0.9,2.2-0.3,3.2s1.6,1.7,2.8,1.7h7.7c0.1,0,0.2,0.1,0.2,0.1s0.1,0.1,0,0.3l-5,14.1
	c-0.2,0.5-0.1,1,0.2,1.4c0.3,0.4,0.8,0.7,1.3,0.7s0.9-0.2,1.2-0.6L16.2-51c0.7-0.9,0.8-2.2,0.3-3.2C16-55.4,14.9-56.1,13.7-56.1z
	 M15.4-51.7L-0.4-31.3c-0.1,0.1-0.3,0.2-0.4,0.2c-0.3,0-0.6-0.3-0.5-0.7l5-14.1c0.3-0.8-0.3-1.7-1.2-1.7h-7.7c-1.7,0-2.7-2-1.6-3.3
	L9-71.4c0.1-0.2,0.3-0.2,0.4-0.2c0.3,0,0.7,0.3,0.5,0.7l-5,14.1c-0.3,0.8,0.3,1.7,1.2,1.7h7.7C15.4-55.1,16.4-53.1,15.4-51.7z"/>
<g>
	<path class="st1" d="M33.6-50.9v-3.4c0-2-1.6-3.6-3.6-3.6s-3.6,1.6-3.6,3.6v3.5"/>
	<line class="st1" x1="24.2" y1="-50.9" x2="35.8" y2="-50.9"/>
	<line class="st1" x1="27.5" y1="-50.9" x2="27.5" y2="-46"/>
	<line class="st1" x1="32.6" y1="-50.9" x2="32.6" y2="-46"/>
</g>
</svg>
