<?xml version="1.0" encoding="utf-8"?>
<!-- Generator: Adobe Illustrator 25.4.0, SVG Export Plug-In . SVG Version: 6.00 Build 0)  -->
<svg version="1.1" id="Layer_1" xmlns="http://www.w3.org/2000/svg" xmlns:xlink="http://www.w3.org/1999/xlink" x="0px" y="0px"
	 viewBox="0 0 60.4 40.5" style="enable-background:new 0 0 60.4 40.5;" xml:space="preserve">
<style type="text/css">
	.st0{fill:#FFFFFF;}
	.st1{fill:none;stroke:#000000;stroke-width:3;stroke-linecap:round;stroke-miterlimit:10;}
</style>
<g id="VwxXSF.tif">
	
		<image style="overflow:visible;enable-background:new    ;" width="520" height="406" id="Layer_0" xlink:href="E4B66F080BADFCAF.png"  transform="matrix(7.637389e-02 0 0 7.637389e-02 9.4678 55.9344)">
	</image>
</g>
<path class="st0" d="M40.6,35.5c0.8,0,1.5-0.7,1.5-1.5s-0.7-1.5-1.5-1.5h-9.4l-2.3,3H40.6z"/>
<path class="st0" d="M36.8,16.5h-7.7c-0.9,0-1.5-0.9-1.2-1.7l2.5-7.2l0.9-2.6l1.5-4.3C33,0.3,32.7,0,32.3,0c-0.2,0-0.3,0.1-0.4,0.2
	l-3.7,4.8l-2.3,3l-9.7,12.6C15.1,22,16.1,24,17.8,24h7.7c0.9,0,1.5,0.9,1.2,1.7l-2.4,6.8l-2.6,7.3c-0.1,0.4,0.2,0.7,0.5,0.7
	c0.1,0,0.3-0.1,0.4-0.2l15.8-20.5C39.5,18.5,38.5,16.5,36.8,16.5z"/>
<path class="st0" d="M46.5,5.1H33.4l-1.1,3h14.2c2.8,0,5,2.2,5,5c0,0.8,0.7,1.5,1.5,1.5s1.5-0.7,1.5-1.5C54.6,8.7,51,5.1,46.5,5.1z"
	/>
<path class="st0" d="M8,32.5c-2.8,0-5-2.2-5-5V13.1c0-2.8,2.2-5,5-5h15.3l2.3-3H8c-4.4,0-8,3.6-8,8v14.4c0,4.4,3.6,8,8,8h13.1l1.1-3
	H8z"/>
<g>
	<path d="M-55.3,32.2H-63c-1.7,0-2.7-2-1.6-3.4l15.8-20.5c0.4-0.5,1.1-0.1,0.9,0.5L-53,23c-0.3,0.8,0.3,1.7,1.2,1.7h7.7
		c1.7,0,2.7,2,1.7,3.4l-15.8,20.5c-0.4,0.5-1.1,0.1-0.9-0.5l5-14.1C-53.8,33.1-54.4,32.2-55.3,32.2z"/>
</g>
<g>
	<polygon points="-65.1,21.6 -72.5,21.6 -74.7,21.6 -79.9,21.6 -74,5 -91.8,28 -82.2,28 -76.9,28 -82.9,44.7 	"/>
</g>
<path class="st0" d="M58.9,19.2h-0.7v-2c0-2.8-2.3-5.1-5.1-5.1s-5.1,2.3-5.1,5.1v2h-0.7c-0.8,0-1.5,0.7-1.5,1.5s0.7,1.5,1.5,1.5H49
	v3.4c0,0.8,0.7,1.5,1.5,1.5s1.5-0.7,1.5-1.5v-3.4h2.1v3.4c0,0.8,0.7,1.5,1.5,1.5s1.5-0.7,1.5-1.5v-3.4h1.8c0.8,0,1.5-0.7,1.5-1.5
	S59.7,19.2,58.9,19.2z M53.1,15.1c1.2,0,2.1,1,2.1,2.1v2h-4.3v-2C50.9,16.1,51.9,15.1,53.1,15.1z"/>
<path class="st1" d="M39.8-25.3H7.2c-3.6,0-6.5-2.9-6.5-6.5v-14.4c0-3.6,2.9-6.5,6.5-6.5h38.5c3.6,0,6.5,2.9,6.5,6.5l0,0"/>
<path d="M35.9-42.8h-7.7c-0.9,0-1.5-0.9-1.2-1.7l5-14.1c0.1-0.4-0.2-0.7-0.5-0.7c-0.1,0-0.3,0.1-0.4,0.2L15.3-38.6
	c-1.1,1.4-0.1,3.3,1.7,3.3h7.7c0.9,0,1.5,0.9,1.2,1.7l-5,14.1c-0.1,0.4,0.2,0.7,0.5,0.7c0.1,0,0.3-0.1,0.4-0.2l15.8-20.4
	C38.6-40.8,37.6-42.8,35.9-42.8z"/>
<path class="st0" d="M39.6-42.5c-0.7-1.4-2.1-2.3-3.7-2.3h-6.7l4.7-13.1c0.3-0.8,0.2-1.6-0.3-2.3c-0.5-0.7-1.3-1.1-2.1-1.1
	c-0.8,0-1.5,0.4-2,1L13.7-39.8c-1,1.2-1.1,2.9-0.4,4.3c0.7,1.4,2.1,2.3,3.7,2.3h6.7L19-20.1c-0.3,0.8-0.2,1.6,0.3,2.3
	c0.5,0.7,1.3,1.1,2.1,1.1c0.8,0,1.5-0.4,2-1l15.8-20.5C40.1-39.4,40.3-41.1,39.6-42.5z M38.4-38.8L22.6-18.3
	c-0.3,0.4-0.7,0.6-1.2,0.6c-0.5,0-1-0.2-1.3-0.7s-0.4-0.9-0.2-1.4l5-14.1c0-0.1,0-0.2,0-0.3c0,0-0.1-0.1-0.2-0.1h-7.7
	c-1.2,0-2.2-0.7-2.8-1.7c-0.5-1.1-0.4-2.3,0.3-3.2l15.8-20.5c0.3-0.4,0.7-0.6,1.2-0.6c0.5,0,1,0.2,1.3,0.7s0.3,0.9,0.2,1.4l-5,14.1
	c0,0.1,0,0.2,0,0.3c0,0,0.1,0.1,0.2,0.1h7.7c1.2,0,2.2,0.7,2.8,1.7C39.2-41,39.1-39.7,38.4-38.8z"/>
<path class="st0" d="M35.9-43.8h-7.7c-0.1,0-0.2-0.1-0.2-0.1c0,0-0.1-0.1,0-0.3l5-14.1c0.2-0.5,0.1-1-0.2-1.4
	c-0.3-0.4-0.8-0.7-1.3-0.7c-0.5,0-0.9,0.2-1.2,0.6L14.5-39.2c-0.7,0.9-0.9,2.2-0.3,3.2s1.6,1.7,2.8,1.7h7.7c0.1,0,0.2,0.1,0.2,0.1
	c0,0,0.1,0.1,0,0.3l-5,14.1c-0.2,0.5-0.1,1,0.2,1.4c0.3,0.4,0.8,0.7,1.3,0.7c0.5,0,0.9-0.2,1.2-0.6l15.8-20.4
	c0.7-0.9,0.8-2.2,0.3-3.2C38.2-43.1,37.1-43.8,35.9-43.8z M37.6-39.4L21.8-19c-0.1,0.1-0.3,0.2-0.4,0.2c-0.3,0-0.6-0.3-0.5-0.7
	l5-14.1c0.3-0.8-0.3-1.7-1.2-1.7H17c-1.7,0-2.7-2-1.6-3.3l15.8-20.5c0.1-0.2,0.3-0.2,0.4-0.2c0.3,0,0.7,0.3,0.5,0.7l-5,14.1
	c-0.3,0.8,0.3,1.7,1.2,1.7h7.7C37.6-42.8,38.6-40.8,37.6-39.4z"/>
<g>
	<path class="st1" d="M55.8-38.6V-42c0-2-1.6-3.6-3.6-3.6S48.6-44,48.6-42v3.5"/>
	<line class="st1" x1="46.4" y1="-38.6" x2="58" y2="-38.6"/>
	<line class="st1" x1="49.7" y1="-38.6" x2="49.7" y2="-33.7"/>
	<line class="st1" x1="54.8" y1="-38.6" x2="54.8" y2="-33.7"/>
</g>
</svg>
